<svg width="104" height="104" viewBox="0 0 104 104" fill="none" xmlns="http://www.w3.org/2000/svg">
<g clip-path="url(#clip0_54_658)">
<ellipse cx="51.2353" cy="52" rx="51.2353" ry="52" fill="white"/>
<path d="M74.1274 74.1H48.1274V38.912L70.6086 51.2278L74.1274 74.1Z" fill="#FAF0BE"/>
<path d="M52.9305 67.8895C62.2532 67.8895 69.8108 60.332 69.8108 51.0093C69.8108 41.6866 62.2532 34.129 52.9305 34.129C43.6078 34.129 36.0503 41.6866 36.0503 51.0093C36.0503 60.332 43.6078 67.8895 52.9305 67.8895Z" fill="#F4C0A3"/>
<path d="M43.2401 70.3857L42.4775 62.6769L57.7063 59.8293L66.6988 81.7241L51.0597 99.709L39.9168 77.8143L43.2401 70.3857Z" fill="#F4C0A3"/>
<path d="M89.3462 88.183C89.1565 88.3804 88.963 88.5759 88.7695 88.7695C88.1556 89.3833 87.5301 89.9795 86.8908 90.5582C77.3119 99.2457 65.0215 104 52 104C39.995 104 28.6117 99.9592 19.4023 92.5209C19.3964 92.517 19.3925 92.5131 19.3866 92.5072C19.1071 92.2824 18.8314 92.0537 18.5558 91.821C18.6047 91.6803 18.6574 91.5415 18.7102 91.4047C21.6719 83.6887 27.5209 79.9138 31.071 78.262C32.8304 77.4429 34.0248 77.1438 34.0248 77.1438L38.1926 69.637L41.1269 75.1107L43.289 79.1456L52.1603 95.6976L59.8137 76.6414L62.185 70.7337L62.7929 69.2206L65.6842 71.4707L68.4211 73.5995L73.9319 74.8155L78.4027 75.8027L84.4746 77.1438C86.9299 79.1436 88.4235 82.9478 89.2582 87.6747C89.2895 87.8429 89.3188 88.0129 89.3462 88.183Z" fill="#9FA67C"/>
<path d="M44.0513 31.8262C46.1075 28.3723 49.8839 26.0025 53.8883 25.6532C57.8927 25.304 62.0223 26.9842 64.6454 30.0299C66.2085 31.8449 67.2334 34.0676 68.7571 35.9159C72.0359 39.8932 77.6268 42.2187 79.0591 47.1703C79.6842 49.331 79.3727 51.6378 79.0565 53.8648C78.7854 55.7736 78.5143 57.6823 78.2433 59.5911C78.0323 61.0766 77.83 62.6426 78.387 64.0357C79.0405 65.6701 80.6043 66.7406 81.6154 68.1815C83.3359 70.6332 83.2101 74.2228 81.3223 76.5481C80.5036 77.5565 79.4181 78.317 78.5598 79.2919C77.7015 80.2669 77.0648 81.5998 77.4243 82.848C78.113 85.2391 81.8628 85.8125 82.2741 88.2665C82.4843 89.5212 81.6177 90.7742 80.4822 91.3479C79.3468 91.9216 78.0102 91.9383 76.7473 91.7848C71.9473 91.2014 67.5032 88.2022 65.1662 83.9693C62.8292 79.7363 62.6591 74.3775 64.7228 70.0047C66.4177 66.4133 69.568 63.2397 69.5337 59.2686C69.515 57.1052 68.5227 55.0845 67.5523 53.1508C65.5663 49.193 63.5803 45.2352 61.5943 41.2773C60.5304 39.1573 59.2958 36.8727 57.1056 35.9619C55.4129 35.258 53.4924 35.531 51.6819 35.8189C49.8714 36.1068 47.9536 36.387 46.2559 35.6954C44.5582 35.0038 43.2754 32.9488 44.0843 31.3037" fill="#FAF0BE"/>
<path d="M47.0095 32.0065C43.7482 30.933 40.0897 32.6564 37.8818 35.2857C35.6739 37.9151 34.6029 41.2884 33.5827 44.5667C32.9982 46.4446 32.4138 48.3224 31.8294 50.2002C31.2796 51.9667 30.7299 53.7332 30.1801 55.4997C29.5335 57.5775 28.8815 59.7849 29.4122 61.8953C29.7959 63.421 30.7831 64.8063 30.8044 66.3794C30.8266 68.0226 29.7975 69.4652 28.8957 70.839C27.9939 72.2128 27.1473 73.8451 27.577 75.4313C28.2305 77.8439 31.5849 79.1701 31.401 81.6629C31.3397 82.4949 30.8586 83.2644 30.8673 84.0986C30.8784 85.1599 31.7094 86.077 32.6829 86.4998C33.6564 86.9227 34.7515 86.9456 35.8128 86.927C39.0679 86.8697 42.3172 86.4832 45.4949 85.7751C46.7175 85.5026 47.9607 85.1685 48.9784 84.4382C49.9961 83.708 50.7553 82.4981 50.6229 81.2526C50.4165 79.3116 48.3296 78.2105 47.2765 76.5671C46.2421 74.9529 46.2661 72.9076 45.82 71.043C45.207 68.4805 43.693 66.2433 42.5565 63.8662C38.2837 54.9292 39.7795 43.5378 46.2146 36.0069C46.7835 35.341 47.4051 34.6711 47.6425 33.8281C47.8799 32.985 47.5739 31.9109 46.7492 31.6159" fill="#FAF0BE"/>
</g>
<defs>
<clipPath id="clip0_54_658">
<rect width="104" height="104" fill="white"/>
</clipPath>
</defs>
</svg>
