<svg width="104" height="104" viewBox="0 0 104 104" fill="none" xmlns="http://www.w3.org/2000/svg">
<g clip-path="url(#clip0_54_700)">
<circle cx="52" cy="52" r="52" fill="white"/>
<path d="M58.071 75.6973L60.546 60.2282L43.8394 53.4217L41.3643 76.9348L58.071 75.6973Z" fill="#A0616A"/>
<path d="M74.8618 98.5586C73.4274 99.2579 71.9657 99.8891 70.4822 100.449C67.515 101.572 64.4523 102.419 61.3103 102.985C58.2393 103.539 55.0864 103.821 51.9335 103.821C47.674 103.821 43.4392 103.31 39.3437 102.299C37.7399 101.905 36.1224 101.425 34.5324 100.864C34.3657 100.804 34.1963 100.744 34.0296 100.684C32.057 99.9684 30.1172 99.1295 28.2511 98.1815C27.9997 98.0559 27.7484 97.9273 27.4971 97.7907C27.2184 97.6487 26.9424 97.4985 26.6637 97.3427C26.3085 97.1487 25.9561 96.9465 25.6036 96.7416C24.4234 96.0585 23.2622 95.3208 22.1529 94.5532L22.0792 94.5041C22.0136 94.4576 21.948 94.4139 21.8852 94.3675C21.9261 94.1516 21.9644 93.9547 21.9999 93.7799C22.1365 93.0942 22.2267 92.7172 22.2267 92.7172L29.7073 77.264L31.792 72.9582L32.8084 72.5401L40.4858 69.3845H59.2502L65.1708 71.8325C65.1708 71.8325 65.2009 71.9445 65.261 72.1604C65.8511 74.2778 69.2937 86.2993 74.6351 98.0612C74.7088 98.225 74.7853 98.3918 74.8618 98.5586Z" fill="#9FA67C"/>
<path d="M53.8491 65.2009C63.2582 65.2009 70.8859 57.5733 70.8859 48.1641C70.8859 38.755 63.2582 31.1273 53.8491 31.1273C44.4399 31.1273 36.8123 38.755 36.8123 48.1641C36.8123 57.5733 44.4399 65.2009 53.8491 65.2009Z" fill="#A0616A"/>
<path d="M32.8382 72.3934L32.8089 72.54L27.6147 97.2361L27.5698 97.4511L27.4974 97.7913C27.2179 97.6486 26.9423 97.498 26.6647 97.3436C26.3089 97.1481 25.957 96.9468 25.6032 96.7415C24.4244 96.0592 23.2632 95.3203 22.1528 94.554L22.0785 94.5032C22.014 94.4582 21.9475 94.4132 21.885 94.3683C21.0365 93.7759 20.2096 93.1582 19.4023 92.5209C19.3964 92.517 19.3925 92.5131 19.3866 92.5072C17.9459 91.346 16.5579 90.0968 15.2305 88.7695C14.3743 87.9132 13.5513 87.0316 12.7635 86.1265L12.8827 85.626L12.8944 85.5752L13.043 84.9379C14.3645 79.3567 18.8353 75.0735 24.4674 73.9944L31.9507 72.5615L32.8382 72.3934Z" fill="#9FA67C"/>
<path d="M85.897 91.3373C83.6921 93.2143 81.3288 94.9139 78.8343 96.4056C78.5912 96.5532 78.3425 96.6978 78.0939 96.8427C77.0339 97.4548 75.9546 98.0257 74.8618 98.5586C73.4274 99.2579 71.9657 99.8891 70.4822 100.449L70.3674 99.9081L64.5014 72.0155L65.261 72.1604L72.8728 73.6193C78.5038 74.6986 82.9763 78.9825 84.2959 84.5642L85.7522 90.7308L85.897 91.3373Z" fill="#9FA67C"/>
<path d="M73.4684 52.7183C73.0258 54.3685 70.7991 61.7427 65.097 63.2945C63.9769 63.6005 61.3048 63.953 62.0125 63.2945C62.1736 63.1443 62.3294 62.9967 62.4851 62.8518C68.6734 57.0324 71.198 53.4752 70.045 45.5792C69.3127 40.5519 60.9742 35.9865 56.2831 35.5329C54.305 35.3419 51.7805 36.011 50.1139 37.7352C47.3626 40.5765 47.8161 49.2978 46.2916 54.4206C45.8818 55.792 45.3326 56.9067 44.543 57.5815C44.0512 58.0022 43.737 57.4668 43.5048 56.5897C43.0103 54.7263 42.8819 51.3141 42.1797 52.2783C40.1497 55.0734 42.0841 58.7781 42.6688 60.2072C42.789 60.4996 42.9119 60.7808 43.0348 61.0487V61.0514C43.1059 61.2043 43.1797 61.3574 43.2507 61.5023V61.505C45.2014 65.4829 47.5456 66.9063 49.6112 69.3845C50.4226 70.3543 51.1904 71.4827 51.8761 72.991C52.3461 74.0238 52.6849 75.062 52.9171 76.0809C54.1001 81.1901 52.6958 85.8321 52.316 87.0944C51.5209 89.7228 50.1549 94.2388 46.1468 96.788C41.1141 99.9903 36.5214 97.1679 34.3247 100.209C34.2974 100.244 34.2728 100.28 34.2482 100.315C34.1662 100.438 34.0925 100.561 34.0296 100.684C32.057 99.9684 30.1172 99.1295 28.2512 98.1815C27.9997 98.0559 27.7484 97.9273 27.4971 97.7907C27.2184 97.6487 26.9424 97.4985 26.6638 97.3427C26.6528 97.1295 26.6419 96.9166 26.6337 96.7007C26.4725 93.004 26.7157 88.9413 27.6364 84.8895C28.2265 82.3022 28.8113 79.7365 29.7074 77.264C30.2921 75.6521 31.0079 74.0782 31.9504 72.5619C32.7046 71.3434 33.6007 70.1603 34.6881 69.0237C37.076 66.5293 39.1989 65.4884 39.535 62.8545C40.0158 59.0951 36.1006 57.9641 34.6881 52.2783C33.7237 48.3906 32.7155 42.787 33.6936 39.011C34.6171 35.443 35.4203 32.3474 38.1006 29.3145C38.7454 28.5877 44.0376 23.5332 50.1685 22.7027C52.9935 22.323 55.5127 25.9404 58.9279 26.719C62.8539 27.6125 65.1025 28.1235 67.2992 29.8036C71.0122 32.6396 72.0586 36.88 73.0285 40.8198C73.7881 43.9017 74.7717 47.8879 73.4684 52.7183Z" fill="#2F2E41"/>
</g>
<defs>
<clipPath id="clip0_54_700">
<rect width="104" height="104" fill="white"/>
</clipPath>
</defs>
</svg>
