<svg width="355" height="154" viewBox="0 0 355 154" fill="none" xmlns="http://www.w3.org/2000/svg">
<g clip-path="url(#clip0_878_271)">
<path d="M320.22 63.5295H111.94C111.056 63.5295 110.208 63.8809 109.582 64.5062C108.957 65.1316 108.606 65.9797 108.606 66.8641C108.606 67.7484 108.957 68.5966 109.582 69.2219C110.208 69.8473 111.056 70.1986 111.94 70.1986H117.84V149.971C117.84 150.855 118.191 151.703 118.816 152.328C119.442 152.954 120.29 153.305 121.174 153.305C122.059 153.305 122.907 152.954 123.532 152.328C124.157 151.703 124.509 150.855 124.509 149.971L124.559 70.1986H291.726L307.139 149.971C307.139 150.855 307.49 151.703 308.116 152.328C308.741 152.954 309.589 153.305 310.473 153.305C311.358 153.305 312.206 152.954 312.831 152.328C313.457 151.703 313.808 150.855 313.808 149.971L314.778 70.1986H320.22C321.105 70.1986 321.953 69.8473 322.578 69.2219C323.204 68.5966 323.555 67.7484 323.555 66.8641C323.555 65.9797 323.204 65.1316 322.578 64.5062C321.953 63.8809 321.105 63.5295 320.22 63.5295Z" fill="#CCCCCC"/>
<path d="M148.043 48.6714V62.7922H112.665C111.738 62.8244 110.813 62.6738 109.944 62.3487C109.075 62.0237 108.279 61.5307 107.6 60.8979C106.922 60.2651 106.375 59.5049 105.99 58.6606C105.605 57.8163 105.391 56.9046 105.359 55.9774C105.326 55.0502 105.477 54.1258 105.802 53.2568C106.127 52.3879 106.62 51.5914 107.253 50.913C107.886 50.2346 108.646 49.6874 109.49 49.3028C110.334 48.9182 111.246 48.7036 112.173 48.6714C112.337 48.6657 112.501 48.6657 112.665 48.6714L148.043 48.6714Z" fill="#F2F2F2"/>
<path d="M148.912 62.6836C148.912 62.8276 148.854 62.9657 148.753 63.0675C148.651 63.1694 148.513 63.2266 148.369 63.2267H112.035C110.062 63.2253 108.171 62.4408 106.777 61.0455C105.382 59.6503 104.599 57.7586 104.599 55.7861C104.599 53.8136 105.382 51.9219 106.777 50.5266C108.171 49.1314 110.062 48.3469 112.035 48.3455H148.369C148.44 48.3453 148.511 48.3593 148.577 48.3865C148.643 48.4137 148.703 48.4537 148.754 48.5041C148.804 48.5546 148.844 48.6145 148.872 48.6805C148.899 48.7465 148.913 48.8172 148.913 48.8886C148.913 48.9601 148.899 49.0308 148.872 49.0968C148.844 49.1628 148.804 49.2227 148.754 49.2732C148.703 49.3236 148.643 49.3636 148.577 49.3908C148.511 49.418 148.44 49.4319 148.369 49.4317H112.035C110.351 49.4343 108.737 50.1049 107.548 51.2963C106.358 52.4877 105.69 54.1025 105.69 55.7861C105.69 57.4697 106.358 59.0845 107.548 60.2759C108.737 61.4673 110.351 62.1379 112.035 62.1405H148.369C148.513 62.1405 148.651 62.1978 148.753 62.2996C148.854 62.4014 148.912 62.5395 148.912 62.6836Z" fill="#9FA67C"/>
<path d="M148.043 51.93H110.025C109.996 51.9302 109.969 51.9189 109.948 51.8987C109.928 51.8786 109.916 51.8511 109.916 51.8224C109.916 51.7936 109.927 51.766 109.947 51.7454C109.967 51.7249 109.994 51.7131 110.023 51.7128H148.043C148.071 51.7131 148.099 51.7246 148.119 51.745C148.139 51.7653 148.15 51.7928 148.15 51.8214C148.15 51.85 148.139 51.8775 148.119 51.8978C148.099 51.9181 148.071 51.9297 148.043 51.93Z" fill="#CCCCCC"/>
<path d="M148.043 54.5369H110.025C109.996 54.5371 109.969 54.5259 109.948 54.5057C109.928 54.4855 109.916 54.4581 109.916 54.4293C109.916 54.4006 109.927 54.3729 109.947 54.3524C109.967 54.3318 109.994 54.3201 110.023 54.3197H148.043C148.071 54.32 148.099 54.3316 148.119 54.3519C148.139 54.3722 148.15 54.3997 148.15 54.4283C148.15 54.4569 148.139 54.4844 148.119 54.5047C148.099 54.5251 148.071 54.5366 148.043 54.5369Z" fill="#CCCCCC"/>
<path d="M148.043 57.1439H110.025C109.996 57.144 109.969 57.1328 109.948 57.1126C109.928 57.0924 109.916 57.065 109.916 57.0363C109.916 57.0075 109.927 56.9798 109.947 56.9593C109.967 56.9388 109.994 56.927 110.023 56.9266H148.043C148.071 56.9269 148.099 56.9385 148.119 56.9588C148.139 56.9792 148.15 57.0066 148.15 57.0353C148.15 57.0639 148.139 57.0913 148.119 57.1117C148.099 57.132 148.071 57.1436 148.043 57.1439Z" fill="#CCCCCC"/>
<path d="M148.043 59.7507H110.025C109.996 59.7509 109.969 59.7397 109.948 59.7195C109.928 59.6993 109.916 59.6719 109.916 59.6431C109.916 59.6144 109.927 59.5867 109.947 59.5662C109.967 59.5456 109.994 59.5339 110.023 59.5335H148.043C148.071 59.5338 148.099 59.5454 148.119 59.5657C148.139 59.586 148.15 59.6135 148.15 59.6421C148.15 59.6708 148.139 59.6982 148.119 59.7185C148.099 59.7389 148.071 59.7505 148.043 59.7507Z" fill="#CCCCCC"/>
<path d="M141.374 33.7943V47.9151H105.996C104.123 47.9803 102.301 47.2989 100.931 46.0209C99.5611 44.7428 98.7547 42.9729 98.6896 41.1003C98.6244 39.2278 99.3058 37.4061 100.584 36.0359C101.862 34.6658 103.632 33.8595 105.504 33.7943C105.668 33.7886 105.832 33.7886 105.996 33.7943H141.374Z" fill="#F2F2F2"/>
<path d="M142.243 47.8065C142.243 47.9505 142.185 48.0886 142.084 48.1904C141.982 48.2923 141.844 48.3495 141.7 48.3496H105.366C103.392 48.3496 101.5 47.5657 100.104 46.1703C98.7088 44.7749 97.9249 42.8824 97.9249 40.909C97.9249 38.9356 98.7088 37.0431 100.104 35.6477C101.5 34.2524 103.392 33.4684 105.366 33.4684H141.7C141.771 33.4684 141.842 33.4825 141.907 33.5098C141.973 33.5371 142.033 33.5771 142.084 33.6275C142.134 33.6779 142.174 33.7378 142.201 33.8037C142.229 33.8696 142.243 33.9402 142.243 34.0116C142.243 34.0829 142.229 34.1535 142.201 34.2194C142.174 34.2853 142.134 34.3452 142.084 34.3956C142.033 34.446 141.973 34.486 141.907 34.5133C141.842 34.5406 141.771 34.5547 141.7 34.5547H105.366C103.68 34.5547 102.064 35.2241 100.872 36.4158C99.6806 37.6075 99.0111 39.2237 99.0111 40.909C99.0111 42.5943 99.6806 44.2106 100.872 45.4022C102.064 46.5939 103.68 47.2634 105.366 47.2634H141.7C141.844 47.2634 141.982 47.3207 142.084 47.4225C142.185 47.5243 142.243 47.6625 142.243 47.8065Z" fill="#3F3D56"/>
<path d="M141.374 37.0529H103.356C103.327 37.0531 103.3 37.0418 103.279 37.0217C103.259 37.0015 103.247 36.974 103.247 36.9453C103.246 36.9166 103.258 36.8889 103.278 36.8684C103.298 36.8478 103.325 36.8361 103.354 36.8357H141.374C141.402 36.836 141.43 36.8475 141.45 36.8679C141.47 36.8882 141.481 36.9157 141.481 36.9443C141.481 36.9729 141.47 37.0004 141.45 37.0207C141.43 37.0411 141.402 37.0526 141.374 37.0529Z" fill="#CCCCCC"/>
<path d="M141.374 39.6599H103.356C103.327 39.66 103.3 39.6488 103.279 39.6286C103.259 39.6084 103.247 39.581 103.247 39.5523C103.246 39.5235 103.258 39.4959 103.278 39.4753C103.298 39.4548 103.325 39.443 103.354 39.4426H141.374C141.402 39.4429 141.43 39.4545 141.45 39.4748C141.47 39.4952 141.481 39.5226 141.481 39.5512C141.481 39.5799 141.47 39.6073 141.45 39.6277C141.43 39.648 141.402 39.6596 141.374 39.6599Z" fill="#CCCCCC"/>
<path d="M141.374 42.2668H103.356C103.327 42.2669 103.3 42.2557 103.279 42.2355C103.259 42.2154 103.247 42.1879 103.247 42.1592C103.246 42.1304 103.258 42.1028 103.278 42.0822C103.298 42.0617 103.325 42.0499 103.354 42.0496H141.374C141.402 42.0498 141.43 42.0614 141.45 42.0818C141.47 42.1021 141.481 42.1296 141.481 42.1582C141.481 42.1868 141.47 42.2143 141.45 42.2346C141.43 42.2549 141.402 42.2665 141.374 42.2668Z" fill="#CCCCCC"/>
<path d="M141.374 44.8737H103.356C103.327 44.8738 103.3 44.8626 103.279 44.8424C103.259 44.8222 103.247 44.7948 103.247 44.7661C103.246 44.7373 103.258 44.7096 103.278 44.6891C103.298 44.6686 103.325 44.6568 103.354 44.6564H141.374C141.402 44.6567 141.43 44.6683 141.45 44.6886C141.47 44.709 141.481 44.7364 141.481 44.7651C141.481 44.7937 141.47 44.8211 141.45 44.8415C141.43 44.8618 141.402 44.8734 141.374 44.8737Z" fill="#CCCCCC"/>
<path d="M182.529 113.497V101.185C182.529 100.641 182.313 100.119 181.928 99.7339C181.543 99.3491 181.021 99.1329 180.477 99.1329H133.793C133.249 99.1329 132.727 99.3491 132.342 99.7339C131.958 100.119 131.741 100.641 131.741 101.185V113.497H182.529Z" fill="#CCCCCC"/>
<path d="M182.529 118.114H131.741V134.017H182.529V118.114Z" fill="#CCCCCC"/>
<path d="M131.741 138.634V150.946C131.741 151.49 131.958 152.012 132.342 152.397C132.727 152.782 133.249 152.998 133.793 152.998H180.477C181.021 152.998 181.543 152.782 181.928 152.397C182.313 152.012 182.529 151.49 182.529 150.946V138.634H131.741Z" fill="#CCCCCC"/>
<path d="M156.879 108.367C157.729 108.367 158.418 107.678 158.418 106.828C158.418 105.978 157.729 105.289 156.879 105.289C156.029 105.289 155.34 105.978 155.34 106.828C155.34 107.678 156.029 108.367 156.879 108.367Z" fill="white"/>
<path d="M156.879 128.887C157.729 128.887 158.418 128.198 158.418 127.348C158.418 126.498 157.729 125.809 156.879 125.809C156.029 125.809 155.34 126.498 155.34 127.348C155.34 128.198 156.029 128.887 156.879 128.887Z" fill="white"/>
<path d="M156.961 148.973C157.811 148.973 158.5 148.284 158.5 147.434C158.5 146.584 157.811 145.895 156.961 145.895C156.111 145.895 155.422 146.584 155.422 147.434C155.422 148.284 156.111 148.973 156.961 148.973Z" fill="white"/>
<path d="M176.771 85.0947V99.2154H141.393C139.521 99.2793 137.701 98.5973 136.332 97.3195C134.963 96.0416 134.157 94.2724 134.092 92.4007C134.027 90.5291 134.707 88.7081 135.984 87.3381C137.261 85.9681 139.03 85.1612 140.901 85.0947C141.065 85.089 141.229 85.089 141.393 85.0947H176.771Z" fill="#F2F2F2"/>
<path d="M177.64 99.1068C177.64 99.2508 177.583 99.3889 177.481 99.4907C177.379 99.5926 177.241 99.6498 177.097 99.6499H140.763C138.79 99.6504 136.898 98.8673 135.502 97.4728C134.106 96.0784 133.322 94.1867 133.32 92.2138C133.319 90.2409 134.102 88.3483 135.496 86.9521C136.89 85.556 138.781 84.7706 140.754 84.7687H177.097C177.168 84.7686 177.239 84.7825 177.305 84.8097C177.371 84.8369 177.431 84.8769 177.482 84.9273C177.532 84.9778 177.573 85.0377 177.6 85.1037C177.627 85.1697 177.641 85.2404 177.641 85.3118C177.641 85.3833 177.627 85.454 177.6 85.52C177.573 85.586 177.532 85.6459 177.482 85.6964C177.431 85.7468 177.371 85.7868 177.305 85.814C177.239 85.8412 177.168 85.8551 177.097 85.855H140.763C139.079 85.8572 137.465 86.5276 136.275 87.719C135.085 88.9105 134.417 90.5255 134.417 92.2093C134.417 93.8931 135.085 95.5081 136.275 96.6996C137.465 97.891 139.079 98.5615 140.763 98.5637H177.097C177.241 98.5637 177.379 98.621 177.481 98.7228C177.583 98.8246 177.64 98.9628 177.64 99.1068Z" fill="#3F3D56"/>
<path d="M176.771 88.3532H138.753C138.725 88.3534 138.697 88.3421 138.677 88.322C138.656 88.3018 138.644 88.2743 138.644 88.2456C138.644 88.2169 138.655 88.1892 138.675 88.1687C138.695 88.1481 138.723 88.1364 138.751 88.136H176.771C176.8 88.1363 176.827 88.1479 176.847 88.1682C176.867 88.1885 176.879 88.216 176.879 88.2446C176.879 88.2732 176.867 88.3007 176.847 88.321C176.827 88.3414 176.8 88.3529 176.771 88.3532Z" fill="#CCCCCC"/>
<path d="M176.771 90.9602H138.753C138.725 90.9604 138.697 90.9491 138.677 90.929C138.656 90.9088 138.644 90.8813 138.644 90.8526C138.644 90.8239 138.655 90.7962 138.675 90.7757C138.695 90.7551 138.723 90.7434 138.751 90.743H176.771C176.8 90.7433 176.827 90.7548 176.847 90.7752C176.867 90.7955 176.879 90.823 176.879 90.8516C176.879 90.8802 176.867 90.9077 176.847 90.928C176.827 90.9484 176.8 90.9599 176.771 90.9602Z" fill="#CCCCCC"/>
<path d="M176.771 93.5671H138.753C138.725 93.5673 138.697 93.5561 138.677 93.5359C138.656 93.5157 138.644 93.4883 138.644 93.4595C138.644 93.4308 138.655 93.4031 138.675 93.3826C138.695 93.362 138.723 93.3503 138.751 93.3499H176.771C176.8 93.3502 176.827 93.3618 176.847 93.3821C176.867 93.4024 176.879 93.4299 176.879 93.4585C176.879 93.4872 176.867 93.5146 176.847 93.535C176.827 93.5553 176.8 93.5669 176.771 93.5671Z" fill="#CCCCCC"/>
<path d="M176.771 96.174H138.753C138.725 96.1742 138.697 96.1629 138.677 96.1428C138.656 96.1226 138.644 96.0951 138.644 96.0664C138.644 96.0377 138.655 96.01 138.675 95.9895C138.695 95.9689 138.723 95.9572 138.751 95.9568H176.771C176.8 95.9571 176.827 95.9686 176.847 95.989C176.867 96.0093 176.879 96.0368 176.879 96.0654C176.879 96.094 176.867 96.1215 176.847 96.1418C176.827 96.1622 176.8 96.1737 176.771 96.174Z" fill="#CCCCCC"/>
<path d="M135.221 29.0836H119.103C118.95 29.0835 118.799 29.1186 118.662 29.1862L114.593 31.2228C114.46 31.2797 114.345 31.3748 114.265 31.4961C114.185 31.6174 114.142 31.7597 114.142 31.9051C114.142 32.0506 114.185 32.1928 114.265 32.3142C114.345 32.4355 114.46 32.5305 114.593 32.5874L118.662 34.624C118.799 34.6917 118.95 34.7268 119.103 34.7266H135.221C135.444 34.7395 135.662 34.6643 135.829 34.5174C135.996 34.3705 136.098 34.1637 136.114 33.9417V29.8685C136.098 29.6466 135.996 29.4398 135.829 29.2929C135.662 29.1459 135.444 29.0708 135.221 29.0836Z" fill="#3F3D56"/>
<path d="M136.114 29.8685V33.9418C136.098 34.1637 135.996 34.3705 135.829 34.5174C135.662 34.6644 135.444 34.7395 135.221 34.7267H132.01V29.0836H135.221C135.444 29.0708 135.662 29.1459 135.829 29.2929C135.996 29.4398 136.098 29.6466 136.114 29.8685Z" fill="#9FA67C"/>
<path d="M38.5854 108.897C40.6609 109.626 42.8893 109.809 45.056 109.428C47.2226 109.046 49.2544 108.113 50.9557 106.718C55.2885 103.081 56.6469 97.09 57.7522 91.5424C58.842 86.0729 59.9318 80.6033 61.0216 75.1338L54.1769 79.8467C49.2546 83.236 44.2214 86.7339 40.8133 91.6431C37.4051 96.5523 35.9175 103.254 38.6558 108.566" fill="#E6E6E6"/>
<path d="M39.1704 128.763C38.4777 123.717 37.7653 118.606 38.2513 113.506C38.6828 108.976 40.0647 104.552 42.8781 100.924C44.3715 99.0027 46.1886 97.3561 48.2478 96.0587C48.7847 95.7198 49.279 96.5707 48.7443 96.9082C45.1813 99.16 42.4255 102.485 40.8741 106.404C39.1607 110.762 38.8855 115.513 39.1808 120.143C39.3594 122.942 39.7378 125.724 40.1191 128.501C40.1492 128.627 40.1305 128.759 40.0667 128.872C40.0029 128.984 39.8989 129.068 39.7756 129.107C39.6498 129.14 39.5157 129.123 39.4024 129.059C39.2892 128.995 39.2058 128.888 39.1704 128.763Z" fill="#F2F2F2"/>
<path d="M45.8431 119.834C46.7333 121.187 47.9568 122.287 49.3959 123.03C50.835 123.773 52.4412 124.133 54.0596 124.074C58.2189 123.877 61.6865 120.974 64.8079 118.218L74.0405 110.066L67.9301 109.774C63.5358 109.564 59.0281 109.367 54.8428 110.723C50.6574 112.078 46.7973 115.339 46.032 119.671" fill="#E6E6E6"/>
<path d="M37.2127 131.664C40.5471 125.764 44.4148 119.207 51.3256 117.111C53.2471 116.53 55.2619 116.322 57.2616 116.498C57.8919 116.552 57.7345 117.524 57.1054 117.469C53.7535 117.191 50.4081 118.076 47.6323 119.976C44.9613 121.794 42.8816 124.321 41.1214 127.002C40.0432 128.644 39.0774 130.355 38.1114 132.064C37.8027 132.611 36.9004 132.216 37.2127 131.664Z" fill="#F2F2F2"/>
<path d="M31.87 137.874C31.9824 136.572 32.4498 135.326 33.2213 134.272C33.9928 133.217 35.0389 132.394 36.2456 131.893V128.482H41.9665V132.001C43.1139 132.527 44.1013 133.347 44.8281 134.379C45.5549 135.411 45.9951 136.617 46.1039 137.874L47.4491 153.511H30.5248L31.87 137.874Z" fill="#F2F2F2"/>
<path d="M226.427 63.209L224.725 62.4924L223.558 53.9609H208.011L206.745 62.4575L205.223 63.2188C205.15 63.2552 205.091 63.3152 205.057 63.389C205.022 63.4627 205.014 63.546 205.032 63.6253C205.051 63.7045 205.096 63.7752 205.16 63.8257C205.224 63.8763 205.303 63.9038 205.384 63.9038H226.287C226.37 63.9038 226.451 63.8749 226.516 63.822C226.58 63.7692 226.625 63.6956 226.641 63.6138C226.658 63.5319 226.645 63.4469 226.606 63.3731C226.567 63.2994 226.504 63.2414 226.427 63.209Z" fill="#E6E6E6"/>
<path d="M254.055 55.096H177.684C177.283 55.0951 176.899 54.9353 176.616 54.6517C176.333 54.368 176.174 53.9837 176.174 53.583V42.8137H255.565V53.583C255.565 53.9837 255.406 54.368 255.123 54.6517C254.84 54.9353 254.456 55.0951 254.055 55.096Z" fill="#CCCCCC"/>
<path d="M255.644 47.9035H176.104V1.82394C176.105 1.34036 176.297 0.876753 176.639 0.534817C176.981 0.19288 177.445 0.000541094 177.928 0H253.82C254.304 0.000541085 254.768 0.192881 255.11 0.534817C255.452 0.876752 255.644 1.34036 255.645 1.82394L255.644 47.9035Z" fill="#3F3D56"/>
<path d="M250.894 44.559H180.855C180.482 44.5586 180.125 44.4104 179.861 44.1467C179.598 43.8831 179.449 43.5257 179.449 43.1529V4.75058C179.449 4.37777 179.598 4.02033 179.861 3.75671C180.125 3.49308 180.482 3.34479 180.855 3.34436H250.894C251.267 3.34479 251.624 3.49308 251.888 3.75671C252.151 4.02033 252.3 4.37776 252.3 4.75058V43.1529C252.3 43.5257 252.151 43.8831 251.888 44.1467C251.624 44.4104 251.267 44.5586 250.894 44.559Z" fill="white"/>
<path d="M232.447 58.1093C232.899 57.6917 233.437 57.3782 234.024 57.1911C234.61 57.0039 235.23 56.9476 235.841 57.0262C236.451 57.1047 237.037 57.3162 237.557 57.6456C238.077 57.9751 238.519 58.4145 238.85 58.9331L248.324 57.2488L250.752 62.7562L237.34 64.9468C236.432 65.4464 235.372 65.5956 234.361 65.3661C233.351 65.1365 232.459 64.5443 231.856 63.7014C231.253 62.8586 230.98 61.8239 231.089 60.7932C231.198 59.7625 231.681 58.8076 232.447 58.1093Z" fill="#FFB6B6"/>
<path d="M241.218 65.1414L251.094 65.0183L252.344 65.0014L272.438 64.7482C272.438 64.7482 277.895 59.5425 282.646 54.1828L281.98 49.3659C281.331 44.6386 278.986 40.3083 275.382 37.1809C268.577 41.728 264.63 50.7286 264.63 50.7286L252.171 53.7085L250.925 54.0066L243.183 55.8565L241.218 65.1414Z" fill="#9FA67C"/>
<path d="M291.776 94.7482H273.341C273.341 95.5382 253.188 96.1792 253.188 96.1792C252.744 96.514 252.338 96.898 251.98 97.3241C250.905 98.6071 250.317 100.229 250.32 101.903V103.048C250.321 104.946 251.075 106.765 252.417 108.107C253.758 109.448 255.578 110.203 257.475 110.203H291.776C293.673 110.202 295.492 109.447 296.834 108.106C298.175 106.764 298.93 104.945 298.931 103.048V101.903C298.929 100.006 298.174 98.1881 296.833 96.8468C295.491 95.5056 293.673 94.7509 291.776 94.7482Z" fill="#E4E4E4"/>
<path d="M278.37 109.919H270.929V152.871H278.37V109.919Z" fill="#E4E4E4"/>
<path d="M249.75 152.609C249.75 153.413 261.026 152.92 274.936 152.92C288.845 152.92 300.122 153.413 300.122 152.609C300.122 151.805 288.845 145.429 274.936 145.429C261.026 145.429 249.75 151.805 249.75 152.609Z" fill="#E4E4E4"/>
<path d="M244.751 147.701L239.213 147.701L236.578 126.34L244.752 126.34L244.751 147.701Z" fill="#FFB6B6"/>
<path d="M246.163 153.07L228.306 153.069V152.843C228.306 151 229.038 149.232 230.342 147.929C231.645 146.625 233.413 145.893 235.256 145.893H235.257L246.163 145.893L246.163 153.07Z" fill="#2F2E41"/>
<path d="M228.382 147.701L222.844 147.701L220.21 126.34L228.383 126.34L228.382 147.701Z" fill="#FFB6B6"/>
<path d="M229.795 153.07L211.937 153.069V152.843C211.938 151 212.67 149.232 213.973 147.929C215.277 146.625 217.045 145.893 218.888 145.893H218.888L229.795 145.893L229.795 153.07Z" fill="#2F2E41"/>
<path d="M277.992 24.7221C283.31 24.7221 287.621 20.4109 287.621 15.0928C287.621 9.77472 283.31 5.46356 277.992 5.46356C272.674 5.46356 268.362 9.77472 268.362 15.0928C268.362 20.4109 272.674 24.7221 277.992 24.7221Z" fill="#FFB6B6"/>
<path d="M293.577 81.0687C293.577 81.0687 296.808 98.1532 284.514 100.329C272.221 102.504 254.476 104.033 254.476 104.033L246.507 141.213L235.801 140.257C235.801 140.257 237.225 95.5013 240.726 91.9998C244.228 88.4982 266.359 78.0138 266.359 78.0138L293.577 81.0687Z" fill="#2F2E41"/>
<path d="M269.567 73.9084L264.191 79.3021C264.191 79.3021 225.37 85.5551 223.872 94.5214C221.611 108.058 218.941 137.496 218.941 137.496L230.612 136.62L235.189 103.158L253.864 98.9101L275.111 87.3311L269.567 73.9084Z" fill="#2F2E41"/>
<path d="M287.258 9.34485C286.307 7.55141 285.099 3.97712 283.181 3.31422C282.115 2.96093 281.014 2.72634 279.897 2.61471L276.636 3.86896L278.411 2.48859C278.066 2.46801 277.72 2.45118 277.375 2.43811L275.175 3.28436L276.3 2.40882C274.249 2.38777 272.132 2.60106 270.542 3.8498C269.187 4.91436 267.845 8.94712 267.628 10.6565C267.396 12.2918 267.477 13.9563 267.867 15.5612L268.424 16.0911C268.619 15.6441 268.766 15.1776 268.861 14.6995C269.061 13.8062 269.445 12.9643 269.988 12.2274C270.531 11.4906 271.222 10.8749 272.016 10.4198L272.046 10.4027C272.981 9.87671 274.115 9.90095 275.187 9.93953L280.277 10.1227C281.501 10.1668 282.82 10.2442 283.775 11.0124C284.381 11.5791 284.859 12.2702 285.173 13.0385C285.648 13.996 286.575 17.6074 286.575 17.6074C286.575 17.6074 287.099 16.9257 287.351 17.4331C287.754 16.1093 287.999 14.7424 288.081 13.361C288.161 11.9735 287.877 10.589 287.258 9.34485Z" fill="#2F2E41"/>
<path d="M320.937 19.3215C320.322 19.3619 319.725 19.5366 319.185 19.8331C318.646 20.1296 318.178 20.5408 317.814 21.0377C317.451 21.5346 317.201 22.1051 317.082 22.7091C316.963 23.313 316.978 23.9357 317.126 24.5333L309.382 30.2452L311.706 35.7974L322.528 27.5776C323.515 27.2629 324.353 26.5969 324.882 25.7059C325.411 24.8148 325.595 23.7606 325.399 22.7429C325.203 21.7252 324.641 20.8148 323.818 20.1842C322.996 19.5537 321.97 19.2467 320.937 19.3215Z" fill="#FFB6B6"/>
<path d="M319.69 30.9823L300.279 52.5413C300.279 52.5413 290.995 49.5696 283.816 46.3477L280.591 36.4416C279.842 34.1435 279.522 31.7271 279.648 29.3134C289.6 26.665 301.177 36.5192 301.177 36.5192L315.707 25.1374L319.69 30.9823Z" fill="#9FA67C"/>
<path d="M274.395 82.661C270.932 81.4647 267.351 80.2277 263.488 79.7633L263.322 79.7433L263.368 79.5827C267.366 65.5431 266.368 56.562 264.409 43.0714C263.992 40.1614 264.528 37.1947 265.935 34.6141C267.343 32.0335 269.548 29.9773 272.22 28.7525L272.244 28.7417L283.276 28.0407L283.301 28.0392L291.325 30.399C292.479 30.741 293.489 31.4519 294.201 32.423C294.912 33.394 295.286 34.5715 295.264 35.7751C295.177 40.2118 295.361 45.1652 295.556 50.4094C295.994 62.1743 296.447 74.3398 293.878 82.2332L293.864 82.2745L293.83 82.3014C291.468 84.225 288.509 85.2643 285.463 85.2403C281.862 85.2403 278.187 83.9709 274.395 82.661Z" fill="#9FA67C"/>
<path d="M354.487 154H0.513007C0.376949 154 0.246465 153.946 0.150258 153.85C0.0540512 153.754 0 153.623 0 153.487C0 153.351 0.0540512 153.22 0.150258 153.124C0.246465 153.028 0.376949 152.974 0.513007 152.974H354.487C354.623 152.974 354.754 153.028 354.85 153.124C354.946 153.22 355 153.351 355 153.487C355 153.623 354.946 153.754 354.85 153.85C354.754 153.946 354.623 154 354.487 154Z" fill="#CCCCCC"/>
</g>
<defs>
<clipPath id="clip0_878_271">
<rect width="355" height="154" fill="white"/>
</clipPath>
</defs>
</svg>
