<svg width="104" height="104" viewBox="0 0 104 104" fill="none" xmlns="http://www.w3.org/2000/svg">
<g clip-path="url(#clip0_54_673)">
<circle cx="52" cy="52" r="52" fill="white"/>
<path d="M52.9303 67.889C62.253 67.889 69.8106 60.3315 69.8106 51.0088C69.8106 41.6861 62.253 34.1285 52.9303 34.1285C43.6076 34.1285 36.0501 41.6861 36.0501 51.0088C36.0501 60.3315 43.6076 67.889 52.9303 67.889Z" fill="#A0616A"/>
<path d="M38.9585 71.6688L42.4773 62.6764L60.6578 59.9395L62.6111 79.8455L44.2352 80.2365L38.9585 71.6688Z" fill="#A0616A"/>
<path d="M69.9741 54.1233C69.755 55.0009 69.3122 57.0907 68.6206 57.101C68.0556 57.1092 67.5148 48.0431 68.0792 46.5435C68.7275 44.8207 67.0238 42.6414 65.7403 41.5227C63.4327 39.5113 58.3104 43.8304 53.1018 41.8738C52.9637 41.822 52.9912 41.8279 51.3464 41.1717C46.2853 39.1523 46.0192 39.094 45.7292 39.0652C43.2758 38.8225 40.2816 40.8302 39.0589 43.2781C37.7879 45.8227 38.8498 48.0052 37.6546 54.1613C37.5153 54.8789 37.2966 55.9016 36.9525 55.9167C36.3233 55.9441 35.7091 52.5839 35.5482 51.7038C34.8741 48.0165 34.2243 44.4616 35.5482 40.4695C35.6926 40.0341 36.5826 38.4179 38.3567 35.2034C40.9126 30.5727 42.1981 28.2485 42.5696 27.8309C45.2338 24.8348 50.0834 22.1017 54.155 23.267C56.2129 23.856 55.8439 24.803 58.3678 25.7245C62.8657 27.3667 66.7748 25.3584 67.4957 26.7777C67.8776 27.5296 66.8091 28.1494 66.7935 29.5863C66.767 32.0517 69.885 32.7641 71.7085 35.2034C72.6888 36.5148 74.3667 36.5289 69.9741 54.1233Z" fill="#2F2E41"/>
<path d="M90.8866 86.5253C90.2063 87.2897 89.5006 88.0385 88.7695 88.7696C78.9481 98.5908 65.8895 104 52 104C39.9951 104 28.6117 99.9593 19.4023 92.521C19.3964 92.5171 19.3925 92.5131 19.3866 92.5072C18.1648 91.5221 16.9821 90.4742 15.8405 89.3677C15.8619 89.1957 15.8854 89.0256 15.9108 88.8574C16.0711 87.7237 16.249 86.6425 16.4484 85.6475C18.0807 77.4918 39.5591 68.9294 40.1182 68.7065C40.126 68.7045 40.1299 68.7026 40.1299 68.7026C40.1299 68.7026 42.8942 78.8915 54.7388 78.7606C62.8066 78.6726 61.2427 68.7026 61.2427 68.7026C61.2427 68.7026 61.3405 68.7221 61.5242 68.7612C63.8544 69.2559 80.0331 72.8098 86.4158 77.66C88.3609 79.1378 89.7567 82.2853 90.7595 86.0385C90.8025 86.1989 90.8436 86.3631 90.8866 86.5253Z" fill="#9FA67C"/>
</g>
<defs>
<clipPath id="clip0_54_673">
<rect width="104" height="104" fill="white"/>
</clipPath>
</defs>
</svg>
