<svg width="104" height="104" viewBox="0 0 104 104" fill="none" xmlns="http://www.w3.org/2000/svg">
<g clip-path="url(#clip0_54_666)">
<circle cx="52" cy="52" r="52" fill="white"/>
<path d="M52.9305 67.89C62.2532 67.89 69.8107 60.3324 69.8107 51.0097C69.8107 41.687 62.2532 34.1295 52.9305 34.1295C43.6078 34.1295 36.0502 41.687 36.0502 51.0097C36.0502 60.3324 43.6078 67.89 52.9305 67.89Z" fill="#F4C0A3"/>
<path d="M43.2401 70.3861L42.4775 62.6773L57.7063 59.8297L66.6988 81.7245L51.0597 99.7094L39.9168 77.8147L43.2401 70.3861Z" fill="#F4C0A3"/>
<path d="M42.2329 66.536L45.5623 67.2883C45.5623 67.2883 42.945 58.9889 43.8334 58.1966C44.7217 57.4042 46.8987 58.6527 46.8987 58.6527L49.1863 61.2175L51.9727 58.3805C51.9727 58.3805 54.9979 54.6189 56.1824 53.5624C57.3669 52.5059 55.4643 48.5845 55.4643 48.5845C55.4643 48.5845 73.0372 43.846 66.4983 35.3227C66.4983 35.3227 62.6646 28.64 61.4161 30.8169C60.1676 32.9938 58.679 29.5364 58.679 29.5364L54.1331 30.4009C54.1331 30.4009 45.1613 25.1109 36.646 36.4277C28.1307 47.7445 42.2329 66.536 42.2329 66.536Z" fill="#FAF0BE"/>
<path d="M84.6779 92.4564C75.4528 99.9358 64.0401 104 52 104C41.0057 104 30.5334 100.61 21.7735 94.3272C21.7892 94.163 21.8048 94.0008 21.8185 93.8385C22.0511 91.2971 22.2583 88.8262 22.3952 86.7774C22.925 78.823 41.4827 73.5214 41.4827 73.5214C41.4827 73.5214 41.5668 73.6054 41.7349 73.752C42.7593 74.6513 46.9173 77.912 54.209 78.823C60.711 79.6362 62.8516 75.7792 63.4986 73.9319C63.6941 73.3689 63.7528 72.9916 63.7528 72.9916L82.8403 82.0056C84.0856 83.7845 84.5723 87.6161 84.6681 91.9227C84.672 92.1006 84.6759 92.2765 84.6779 92.4564Z" fill="#9FA67C"/>
</g>
<defs>
<clipPath id="clip0_54_666">
<rect width="104" height="104" fill="white"/>
</clipPath>
</defs>
</svg>
