<svg width="390" height="240" viewBox="0 0 390 240" fill="none" xmlns="http://www.w3.org/2000/svg">
<line x1="391" y1="145.5" x2="-1" y2="145.5" stroke="#3F3D56"/>
<g clip-path="url(#clip0_204_2)">
<path d="M274.6 35.5699L276.268 56.9064L300.447 46.81L286.808 25.1089L274.6 35.5699Z" fill="#A0616A"/>
<path d="M273.876 42.0703C283.83 42.0703 291.899 34.0032 291.899 24.0519C291.899 14.1006 283.83 6.03345 273.876 6.03345C263.922 6.03345 255.853 14.1006 255.853 24.0519C255.853 34.0032 263.922 42.0703 273.876 42.0703Z" fill="#A0616A"/>
<path d="M240.157 192.049L243.209 219.416L221.845 216.458L228.821 191.177L240.157 192.049Z" fill="#A0616A"/>
<path d="M323.431 195.972L326.483 223.339L305.119 220.38L312.095 195.1L323.431 195.972Z" fill="#A0616A"/>
<path d="M272.638 113.373C272.346 113.373 249.031 114.544 233.627 115.319C226.336 115.685 220.786 121.994 221.352 129.271L226.859 200.112L242.555 200.548L242.938 143.449L273.946 145.192L272.638 113.373Z" fill="#2F2E41"/>
<path d="M341.088 112.938C341.088 112.938 345.012 143.013 341.96 146.064C338.909 149.115 243.209 143.667 243.209 143.667C243.209 143.667 264.203 113.357 267.985 112.494C271.766 111.63 331.933 108.579 331.933 108.579L341.088 112.938Z" fill="#2F2E41"/>
<path d="M217.112 75.072C213.467 69.9764 213.143 63.9659 216.387 61.6477C219.631 59.3295 225.214 61.5814 228.859 66.6794C230.343 68.6959 231.323 71.0383 231.716 73.5107L246.885 95.2963L238.252 101.271L222.655 79.9858C220.441 78.8139 218.54 77.129 217.112 75.072Z" fill="#A0616A"/>
<path d="M273.728 49.082L295.963 39.9286L337.818 104.438C337.818 104.438 308.607 110.976 298.579 112.284C288.552 113.591 277.216 108.361 277.216 108.361L273.728 49.082Z" fill="#9FA67C"/>
<path d="M300.759 59.9789L292.694 34.8252L303.157 42.7618C303.157 42.7618 332.805 62.3762 332.805 70.6578C332.805 78.9394 341.96 104.22 341.96 104.22C341.96 104.22 352.206 112.72 348.718 120.565C345.23 128.411 353.296 127.321 354.168 132.988C355.04 138.654 341.742 146.282 341.742 146.282C341.742 146.282 338.472 114.245 328.009 114.245C317.545 114.245 300.759 59.9789 300.759 59.9789Z" fill="#3F3D56"/>
<path d="M275.291 48.4388L264.354 52.787C264.354 52.787 266.098 83.2981 267.842 85.9134C269.586 88.5286 275.69 102.477 275.69 102.477V107.022C275.69 107.022 263.482 110.758 263.918 112.938C264.354 115.117 292.694 121.219 292.694 121.219C292.694 121.219 287.026 103.784 283.538 98.1179C280.05 92.4515 275.291 48.4388 275.291 48.4388Z" fill="#3F3D56"/>
<path d="M268.278 52.7869C268.278 52.7869 255.635 51.0435 253.455 65.8632C251.275 80.6829 252.66 82.6443 252.66 82.6443L249.095 91.1439L237.323 78.0676L225.987 85.4775C225.987 85.4775 246.479 118.604 254.763 117.732C263.046 116.86 275.254 92.8874 275.254 92.8874L268.278 52.7869Z" fill="#3F3D56"/>
<path d="M331.426 117.749L324.957 209.266L308.171 208.612C308.171 208.612 304.465 122.091 304.465 120.783C304.465 119.476 306.209 112.066 317.109 111.63C328.009 111.194 331.426 117.749 331.426 117.749Z" fill="#2F2E41"/>
<path d="M307.081 211.009C307.081 211.009 315.801 208.394 317.109 210.137C318.417 211.881 325.829 212.753 325.829 212.753L328.009 234.111C328.009 234.111 321.905 238.469 321.033 239.341C320.161 240.213 297.054 241.085 296.618 235.854C296.182 230.624 302.721 224.085 302.721 224.085L307.081 211.009Z" fill="#2F2E41"/>
<path d="M242.991 204.907C242.991 204.907 245.607 202.728 246.479 208.83C247.351 214.932 250.403 224.957 246.043 226.265C241.683 227.572 198.084 228.008 198.084 224.085V220.163L202.008 217.111L209.857 215.861C209.857 215.861 225.115 201.856 226.859 201.856C228.603 201.856 234.271 207.522 234.271 207.522L242.991 204.907Z" fill="#2F2E41"/>
<path d="M291.604 33.8264C291.604 33.8264 282.884 23.3655 279.396 24.2372C275.908 25.109 278.088 26.4166 278.088 26.4166L269.368 16.8273C269.368 16.8273 262.392 14.2121 255.853 22.4937C255.853 22.4937 251.929 15.5197 255.853 11.5969C259.776 7.67399 261.084 8.10987 261.956 5.9305C262.828 3.75113 268.932 2.00763 268.932 2.00763C268.932 2.00763 268.582 -1.12929 270.501 0.439168C272.42 2.00763 277.213 2.00763 277.213 2.00763C277.213 2.00763 277.24 0.264134 279.19 2.00763C281.14 3.75113 283.32 2.87938 283.32 2.87938C283.32 2.87938 283.32 5.89617 284.846 5.91334C286.372 5.9305 288.988 3.75113 289.424 5.49462C289.86 7.23812 292.912 8.10987 293.348 13.3404C293.784 18.5708 291.604 33.8264 291.604 33.8264Z" fill="#2F2E41"/>
<path d="M220.542 77.9555L170.736 112.314C169.017 113.5 166.654 113.067 165.468 111.348L151.446 91.0327C150.26 89.3144 150.694 86.952 152.412 85.7663L202.218 51.4077C203.937 50.2221 206.3 50.6553 207.486 52.3736L221.508 72.6892C222.694 74.4074 222.26 76.7699 220.542 77.9555Z" fill="white"/>
<path d="M207.394 52.4368L221.416 72.7523C222.57 74.4238 222.151 76.7105 220.479 77.864L196.035 94.7262C189.589 92.9652 183.707 89.0098 179.615 83.0814C176.935 79.1981 175.319 74.8991 174.703 70.5244L202.281 51.4993C203.953 50.3459 206.241 50.7653 207.394 52.4368Z" fill="#E6E6E6"/>
<path d="M168.592 113.418C167.249 113.418 165.928 112.782 165.109 111.596L151.087 91.2803C150.448 90.3532 150.207 89.2316 150.411 88.1211C150.615 87.0106 151.238 86.0469 152.165 85.4075L201.97 51.0488C203.888 49.7271 206.522 50.2107 207.845 52.1257L221.867 72.4415C222.507 73.3686 222.747 74.4902 222.543 75.6008C222.339 76.7109 221.716 77.675 220.79 78.3144L170.984 112.673C170.253 113.177 169.418 113.418 168.592 113.418ZM204.364 51.1748C203.708 51.1748 203.046 51.3668 202.466 51.7665L152.66 86.1252C151.925 86.6321 151.431 87.397 151.269 88.2786C151.107 89.1597 151.297 90.0502 151.805 90.7849L165.827 111.101C166.876 112.62 168.967 113.005 170.488 111.955L220.294 77.5967C221.03 77.0897 221.524 76.3248 221.685 75.4433C221.847 74.5622 221.657 73.6717 221.149 72.937L207.127 52.6212C206.478 51.6805 205.429 51.1748 204.364 51.1748Z" fill="#3F3D56"/>
<path d="M168.952 103.275C167.69 104.146 167.371 105.881 168.242 107.143C169.113 108.405 170.849 108.723 172.111 107.852L177.239 104.315C178.501 103.444 178.82 101.709 177.949 100.447C177.078 99.1848 175.342 98.8665 174.08 99.7373L168.952 103.275Z" fill="#9FA67C"/>
<path d="M172.428 74.9316C170.436 76.3055 169.934 79.0431 171.308 81.0342C172.683 83.0253 175.421 83.5273 177.412 82.1534L185.389 76.6507C187.381 75.2768 187.883 72.5393 186.509 70.5482C185.134 68.5572 182.396 68.055 180.404 69.4289L172.428 74.9316Z" fill="#9FA67C"/>
<path d="M219.349 80.9892H158.837C156.749 80.9892 155.05 79.2909 155.05 77.2033V52.5205C155.05 50.4328 156.749 48.7345 158.837 48.7345H219.349C221.437 48.7345 223.136 50.4328 223.136 52.5205V77.2033C223.136 79.2909 221.437 80.9892 219.349 80.9892Z" fill="white"/>
<path d="M223.025 52.5205V77.2031C223.025 79.2341 221.381 80.878 219.349 80.878H189.652C185.346 75.7683 182.752 69.1728 182.752 61.97C182.752 57.252 183.864 52.7963 185.842 48.8457H219.349C221.381 48.8457 223.025 50.4896 223.025 52.5205Z" fill="#E6E6E6"/>
<path d="M219.349 81.4251H158.837C156.508 81.4251 154.614 79.5313 154.614 77.2034V52.5203C154.614 50.1924 156.508 48.2986 158.837 48.2986H219.349C221.678 48.2986 223.572 50.1924 223.572 52.5203V77.2034C223.572 79.5313 221.678 81.4251 219.349 81.4251ZM158.837 49.1704C156.989 49.1704 155.486 50.673 155.486 52.5203V77.2034C155.486 79.0508 156.989 80.5533 158.837 80.5533H219.349C221.197 80.5533 222.7 79.0508 222.7 77.2034V52.5203C222.7 50.673 221.197 49.1704 219.349 49.1704H158.837Z" fill="#3F3D56"/>
<path d="M162.504 72.5363C160.97 72.5363 159.722 73.7836 159.722 75.3168C159.722 76.8501 160.97 78.0974 162.504 78.0974H168.734C170.267 78.0974 171.515 76.8501 171.515 75.3168C171.515 73.7836 170.267 72.5363 168.734 72.5363H162.504Z" fill="#9FA67C"/>
<path d="M181.466 51.1814C179.046 51.1814 177.078 53.1496 177.078 55.5687C177.078 57.9878 179.046 59.9557 181.466 59.9557H191.157C193.577 59.9557 195.546 57.9878 195.546 55.5687C195.546 53.1496 193.577 51.1814 191.157 51.1814H181.466Z" fill="#9FA67C"/>
<path d="M269.924 166.42H209.412C207.323 166.42 205.625 164.722 205.625 162.635V137.952C205.625 135.864 207.323 134.166 209.412 134.166H269.924C272.012 134.166 273.711 135.864 273.711 137.952V162.635C273.711 164.722 272.012 166.42 269.924 166.42Z" fill="white"/>
<path d="M273.6 137.952V162.634C273.6 164.665 271.955 166.309 269.924 166.309H240.226C235.921 161.2 233.326 154.604 233.326 147.401C233.326 142.683 234.439 138.228 236.417 134.277H269.924C271.955 134.277 273.6 135.921 273.6 137.952Z" fill="#E6E6E6"/>
<path d="M269.924 166.856H209.412C207.083 166.856 205.188 164.963 205.188 162.635V137.952C205.188 135.624 207.083 133.73 209.412 133.73H269.924C272.252 133.73 274.147 135.624 274.147 137.952V162.635C274.147 164.963 272.252 166.856 269.924 166.856ZM209.412 134.602C207.564 134.602 206.06 136.104 206.06 137.952V162.635C206.06 164.482 207.564 165.985 209.412 165.985H269.924C271.772 165.985 273.275 164.482 273.275 162.635V137.952C273.275 136.104 271.772 134.602 269.924 134.602H209.412Z" fill="#3F3D56"/>
<path d="M213.078 157.968C211.545 157.968 210.297 159.215 210.297 160.748C210.297 162.281 211.545 163.529 213.078 163.529H219.309C220.842 163.529 222.09 162.281 222.09 160.748C222.09 159.215 220.842 157.968 219.309 157.968H213.078Z" fill="#9FA67C"/>
<path d="M232.041 136.613C229.621 136.613 227.653 138.581 227.653 141C227.653 143.419 229.621 145.387 232.041 145.387H241.732C244.152 145.387 246.12 143.419 246.12 141C246.12 138.581 244.152 136.613 241.732 136.613H232.041Z" fill="#9FA67C"/>
<path d="M274.029 144.282C268.471 147.175 262.473 146.653 260.632 143.117C258.791 139.58 261.804 134.37 267.364 131.476C269.569 130.29 272.026 129.649 274.53 129.607L298.232 117.646L302.94 127.028L279.672 139.483C278.201 141.511 276.266 143.156 274.029 144.282Z" fill="#A0616A"/>
<path d="M300.978 42.326C300.978 42.326 325.393 41.0183 330.625 54.0946C335.857 67.1708 340.217 109.886 340.217 109.886L287.026 138.817L277.87 124.706L313.621 96.8102L300.978 42.326Z" fill="#3F3D56"/>
</g>
<defs>
<clipPath id="clip0_204_2">
<rect width="319" height="240" fill="white" transform="translate(71)"/>
</clipPath>
</defs>
</svg>
