<svg width="390" height="451" viewBox="0 0 390 451" fill="none" xmlns="http://www.w3.org/2000/svg">
<path fill-rule="evenodd" clip-rule="evenodd" d="M-543 450.453L-518.933 379.228C-494.867 308.002 -446.733 165.551 -398.6 104.501C-350.467 43.4508 -302.333 63.8009 -254.2 145.201C-206.067 226.602 -98.4302 113.466 -117.024 188.953C-156.557 349.453 -245.581 564.775 -9.99023 379.228C92.1759 298.763 179 440 269.01 398.5C494.074 294.732 439.555 490.201 631.01 398.5C845.01 296 386.367 135.153 434.5 94.4529C482.633 53.7527 564.067 -17.5996 612.2 -7.42451C660.333 2.75055 708.467 104.501 756.6 155.376C804.733 206.252 852.867 206.252 876.933 206.252H901V-99H876.933C852.867 -99 804.733 -99 756.6 -99C708.467 -99 660.333 -99 612.2 -99C564.067 -99 515.933 -99 467.8 -99C419.667 -99 371.533 -99 323.4 -99C275.267 -99 227.133 -99 179 -99C130.867 -99 82.7334 -99 34.6 -99C-13.5333 -99 -61.6667 -99 -109.8 -99C-157.933 -99 -206.067 -99 -254.2 -99C-302.333 -99 -350.467 -99 -398.6 -99C-446.733 -99 -494.867 -99 -518.933 -99H-543V450.453Z" fill="#E4E8D8"/>
</svg>
